<svg width="25" height="24" viewBox="0 0 25 24" fill="none" xmlns="http://www.w3.org/2000/svg">
<path fill-rule="evenodd" clip-rule="evenodd" d="M12.5 5.75C9.04822 5.75 6.25 8.54822 6.25 12C6.25 15.4518 9.04822 18.25 12.5 18.25C15.9518 18.25 18.75 15.4518 18.75 12C18.75 8.54822 15.9518 5.75 12.5 5.75ZM4.75 12C4.75 7.71979 8.21979 4.25 12.5 4.25C16.7802 4.25 20.25 7.71979 20.25 12C20.25 16.2802 16.7802 19.75 12.5 19.75C8.21979 19.75 4.75 16.2802 4.75 12Z" fill="#17181A"/>
<path fill-rule="evenodd" clip-rule="evenodd" d="M4.75 12C4.75 11.5858 5.08579 11.25 5.5 11.25H19.5C19.9142 11.25 20.25 11.5858 20.25 12C20.25 12.4142 19.9142 12.75 19.5 12.75H5.5C5.08579 12.75 4.75 12.4142 4.75 12Z" fill="#17181A"/>
<path fill-rule="evenodd" clip-rule="evenodd" d="M10.4502 12C10.4977 14.1195 11.2198 16.1609 12.5 17.8326C13.7802 16.1609 14.5023 14.1195 14.5498 12C14.5023 9.88046 13.7802 7.83911 12.5 6.16745C11.2198 7.83911 10.4977 9.88046 10.4502 12ZM12.5 5L11.9462 4.49418C10.0727 6.54526 9.00802 9.20704 8.95016 11.9844C8.94994 11.9948 8.94994 12.0052 8.95016 12.0156C9.00802 14.793 10.0727 17.4547 11.9462 19.5058C12.0883 19.6614 12.2893 19.75 12.5 19.75C12.7107 19.75 12.9117 19.6614 13.0538 19.5058C14.9273 17.4547 15.992 14.793 16.0498 12.0156C16.0501 12.0052 16.0501 11.9948 16.0498 11.9844C15.992 9.20704 14.9273 6.54526 13.0538 4.49418L12.5 5Z" fill="#17181A"/>
</svg>
