<svg width="30" height="29" viewBox="0 0 30 29" fill="none" xmlns="http://www.w3.org/2000/svg">
<rect x="0.656586" y="0.231567" width="28.4868" height="28.4868" rx="7.59649" fill="url(#paint0_radial_2_3721)"/>
<g clip-path="url(#clip0_2_3721)">
<path d="M14.8942 8.24626C16.9239 8.24626 17.1642 8.25516 17.9625 8.29077C18.7043 8.32341 19.1049 8.44804 19.372 8.5519C19.7251 8.6884 19.9803 8.85457 20.2444 9.11867C20.5114 9.38573 20.6746 9.63796 20.8111 9.99108C20.915 10.2581 21.0396 10.6617 21.0723 11.4006C21.1079 12.2018 21.1168 12.4421 21.1168 14.4689C21.1168 16.4985 21.1079 16.7389 21.0723 17.5371C21.0396 18.279 20.915 18.6796 20.8111 18.9466C20.6746 19.2997 20.5085 19.5549 20.2444 19.819C19.9773 20.0861 19.7251 20.2493 19.372 20.3858C19.1049 20.4897 18.7013 20.6143 17.9625 20.6469C17.1613 20.6825 16.9209 20.6914 14.8942 20.6914C12.8645 20.6914 12.6241 20.6825 11.8259 20.6469C11.0841 20.6143 10.6835 20.4897 10.4164 20.3858C10.0633 20.2493 9.8081 20.0831 9.54401 19.819C9.27694 19.552 9.11374 19.2997 8.97724 18.9466C8.87338 18.6796 8.74875 18.276 8.71611 17.5371C8.6805 16.7359 8.6716 16.4956 8.6716 14.4689C8.6716 12.4392 8.6805 12.1988 8.71611 11.4006C8.74875 10.6587 8.87338 10.2581 8.97724 9.99108C9.11374 9.63796 9.27991 9.38276 9.54401 9.11867C9.81107 8.8516 10.0633 8.6884 10.4164 8.5519C10.6835 8.44804 11.087 8.32341 11.8259 8.29077C12.6241 8.25516 12.8645 8.24626 14.8942 8.24626ZM14.8942 6.8783C12.8319 6.8783 12.5737 6.8872 11.7636 6.92281C10.9565 6.95842 10.4016 7.08898 9.92086 7.27592C9.41938 7.47177 8.99504 7.72993 8.57367 8.15427C8.14934 8.57564 7.89117 8.99997 7.69533 9.49849C7.50838 9.98218 7.37782 10.5341 7.34221 11.3412C7.3066 12.1543 7.2977 12.4125 7.2977 14.4748C7.2977 16.5371 7.3066 16.7953 7.34221 17.6054C7.37782 18.4125 7.50838 18.9674 7.69533 19.4481C7.89117 19.9496 8.14934 20.3739 8.57367 20.7953C8.99504 21.2167 9.41938 21.4778 9.9179 21.6707C10.4016 21.8576 10.9535 21.9882 11.7606 22.0238C12.5707 22.0594 12.8289 22.0683 14.8912 22.0683C16.9536 22.0683 17.2117 22.0594 18.0218 22.0238C18.8289 21.9882 19.3838 21.8576 19.8646 21.6707C20.3631 21.4778 20.7874 21.2167 21.2088 20.7953C21.6301 20.3739 21.8913 19.9496 22.0842 19.4511C22.2711 18.9674 22.4017 18.4155 22.4373 17.6083C22.4729 16.7982 22.4818 16.5401 22.4818 14.4778C22.4818 12.4154 22.4729 12.1573 22.4373 11.3472C22.4017 10.54 22.2711 9.98514 22.0842 9.50443C21.8972 8.99997 21.639 8.57564 21.2147 8.15427C20.7933 7.7329 20.369 7.47177 19.8705 7.27889C19.3868 7.09195 18.8349 6.96138 18.0277 6.92577C17.2147 6.8872 16.9565 6.8783 14.8942 6.8783Z" fill="white" fill-opacity="0.45"/>
<path d="M14.8977 10.5728C12.7434 10.5728 10.9956 12.3205 10.9956 14.4749C10.9956 16.6292 12.7434 18.377 14.8977 18.377C17.0521 18.377 18.7998 16.6292 18.7998 14.4749C18.7998 12.3205 17.0521 10.5728 14.8977 10.5728ZM14.8977 17.006C13.5001 17.006 12.3666 15.8725 12.3666 14.4749C12.3666 13.0772 13.5001 11.9437 14.8977 11.9437C16.2954 11.9437 17.4289 13.0772 17.4289 14.4749C17.4289 15.8725 16.2954 17.006 14.8977 17.006Z" fill="white" fill-opacity="0.45"/>
<path d="M19.8606 10.4173C19.8606 10.9218 19.4511 11.3283 18.9497 11.3283C18.4452 11.3283 18.0387 10.9188 18.0387 10.4173C18.0387 9.91288 18.4482 9.50635 18.9497 9.50635C19.4511 9.50635 19.8606 9.91585 19.8606 10.4173Z" fill="white" fill-opacity="0.45"/>
</g>
<defs>
<radialGradient id="paint0_radial_2_3721" cx="0" cy="0" r="1" gradientUnits="userSpaceOnUse" gradientTransform="translate(8.99215 30.9325) scale(37.7539 37.7754)">
<stop offset="0.0969388" stop-color="#FFD879"/>
<stop offset="0.1539" stop-color="#FCCB76"/>
<stop offset="0.2583" stop-color="#F5AA6C"/>
<stop offset="0.3976" stop-color="#E9755E"/>
<stop offset="0.449" stop-color="#E45F58"/>
<stop offset="0.6786" stop-color="#D22A9C"/>
<stop offset="1" stop-color="#6968DF"/>
</radialGradient>
<clipPath id="clip0_2_3721">
<rect width="15.193" height="15.193" fill="white" transform="translate(7.30557 6.87866)"/>
</clipPath>
</defs>
</svg>
