<svg width="30" height="29" viewBox="0 0 30 29" fill="none" xmlns="http://www.w3.org/2000/svg">
<rect x="0.703705" y="0.231567" width="28.4868" height="28.4868" rx="7.59649" fill="url(#paint0_linear_2_3728)"/>
<g clip-path="url(#clip0_2_3728)">
<path d="M21.414 6.87842H8.46731C7.84713 6.87842 7.34564 7.36804 7.34564 7.97338V20.9735C7.34564 21.5788 7.84713 22.0714 8.46731 22.0714H21.414C22.0342 22.0714 22.5386 21.5788 22.5386 20.9764V7.97338C22.5386 7.36804 22.0342 6.87842 21.414 6.87842ZM11.8531 19.8251H9.59788V12.5728H11.8531V19.8251ZM10.7255 11.5847C10.0014 11.5847 9.41687 11.0001 9.41687 10.279C9.41687 9.55796 10.0014 8.97339 10.7255 8.97339C11.4466 8.97339 12.0311 9.55796 12.0311 10.279C12.0311 10.9971 11.4466 11.5847 10.7255 11.5847ZM20.2923 19.8251H18.0401V16.2998C18.0401 15.4601 18.0252 14.377 16.868 14.377C15.6958 14.377 15.5178 15.2939 15.5178 16.2405V19.8251H13.2685V12.5728H15.4288V13.5639H15.4585C15.7582 12.9942 16.4941 12.3918 17.589 12.3918C19.871 12.3918 20.2923 13.8933 20.2923 15.8458V19.8251Z" fill="white" fill-opacity="0.45"/>
</g>
<defs>
<linearGradient id="paint0_linear_2_3728" x1="4.50195" y1="-19.75" x2="14.9471" y2="28.7184" gradientUnits="userSpaceOnUse">
<stop stop-color="#0094FF"/>
<stop offset="1" stop-color="#135C92"/>
</linearGradient>
<clipPath id="clip0_2_3728">
<rect width="15.193" height="15.193" fill="white" transform="translate(7.3526 6.87866)"/>
</clipPath>
</defs>
</svg>
