<svg width="30" height="29" viewBox="0 0 30 29" fill="none" xmlns="http://www.w3.org/2000/svg">
<rect x="0.75" y="0.231567" width="28.4868" height="28.4868" rx="7.59649" fill="url(#paint0_linear_2_3733)"/>
<g clip-path="url(#clip0_2_3733)">
<path d="M22.4409 11.4363C22.4409 11.4363 22.2926 10.3888 21.8356 9.92884C21.257 9.32349 20.6101 9.32053 20.3133 9.28492C18.1887 9.13062 14.9988 9.13062 14.9988 9.13062H14.9928C14.9928 9.13062 11.8029 9.13062 9.67824 9.28492C9.3815 9.32053 8.73461 9.32349 8.15597 9.92884C7.699 10.3888 7.5536 11.4363 7.5536 11.4363C7.5536 11.4363 7.39929 12.6677 7.39929 13.8962V15.0476C7.39929 16.2761 7.55063 17.5075 7.55063 17.5075C7.55063 17.5075 7.699 18.555 8.15301 19.015C8.73165 19.6203 9.49129 19.5995 9.82958 19.6648C11.0462 19.7805 14.9958 19.8161 14.9958 19.8161C14.9958 19.8161 18.1887 19.8102 20.3133 19.6589C20.6101 19.6233 21.257 19.6203 21.8356 19.015C22.2926 18.555 22.4409 17.5075 22.4409 17.5075C22.4409 17.5075 22.5923 16.279 22.5923 15.0476V13.8962C22.5923 12.6677 22.4409 11.4363 22.4409 11.4363ZM13.426 16.4452V12.1751L17.5299 14.3176L13.426 16.4452Z" fill="white" fill-opacity="0.45"/>
</g>
<defs>
<linearGradient id="paint0_linear_2_3733" x1="4.54825" y1="-19.75" x2="14.9934" y2="28.7184" gradientUnits="userSpaceOnUse">
<stop stop-color="#FF2C2C"/>
<stop offset="1" stop-color="#B12728"/>
</linearGradient>
<clipPath id="clip0_2_3733">
<rect width="15.193" height="15.193" fill="white" transform="translate(7.39886 6.87866)"/>
</clipPath>
</defs>
</svg>
