<svg width="25" height="24" viewBox="0 0 25 24" fill="none" xmlns="http://www.w3.org/2000/svg">
<path fill-rule="evenodd" clip-rule="evenodd" d="M11.5938 5.75C8.64248 5.75 6.25 8.14248 6.25 11.0938C6.25 14.045 8.64248 16.4375 11.5938 16.4375C13.0696 16.4375 14.4045 15.8402 15.3724 14.8724C16.3402 13.9045 16.9375 12.5696 16.9375 11.0938C16.9375 8.14248 14.545 5.75 11.5938 5.75ZM4.75 11.0938C4.75 7.31405 7.81405 4.25 11.5938 4.25C15.3734 4.25 18.4375 7.31405 18.4375 11.0938C18.4375 12.7131 17.8743 14.202 16.9343 15.3737L21.0303 19.4697C21.3232 19.7626 21.3232 20.2374 21.0303 20.5303C20.7374 20.8232 20.2626 20.8232 19.9697 20.5303L15.8737 16.4343C14.702 17.3743 13.2131 17.9375 11.5938 17.9375C7.81405 17.9375 4.75 14.8734 4.75 11.0938Z" fill="#17181A"/>
</svg>
