<svg width="22" height="22" viewBox="0 0 22 22" fill="none" xmlns="http://www.w3.org/2000/svg">
<path fill-rule="evenodd" clip-rule="evenodd" d="M5 0C2.23858 0 0 2.23858 0 5V17C0 19.7614 2.23858 22 5 22H17C19.7614 22 22 19.7614 22 17V5C22 2.23858 19.7614 0 17 0H5ZM10.4339 15.7881C10.2312 16.0952 9.96083 16.2363 9.64823 16.2363C9.33564 16.2363 9.08218 16.1118 8.82028 15.7964L5.55914 11.9116C5.41551 11.7373 5.33103 11.5132 5.33103 11.3057C5.33103 10.8657 5.67742 10.542 6.0914 10.542C6.36175 10.542 6.58986 10.6416 6.80952 10.9155L9.60599 14.3604L14.861 6.15088C15.0469 5.86865 15.2919 5.72754 15.5369 5.72754C15.9508 5.72754 16.3479 6.00146 16.3479 6.44141C16.3479 6.64062 16.2381 6.86475 16.1114 7.04736L10.4339 15.7881Z" fill="#2268B4"/>
</svg>
