<svg width="80" height="37" viewBox="0 0 80 37" fill="none" xmlns="http://www.w3.org/2000/svg">
<rect x="0.5" y="1.16504" width="79" height="35" rx="17.5" fill="white" stroke="#E2E2E2"/>
<path d="M25.5897 16.8365C25.8617 16.7799 26.1223 16.7402 26.3717 16.7175C26.621 16.6892 26.8618 16.675 27.0942 16.675C27.7402 16.675 28.3097 16.7714 28.8027 16.964C29.2957 17.1567 29.7093 17.423 30.0437 17.763C30.378 18.103 30.6302 18.5025 30.8002 18.9615C30.9702 19.4149 31.0552 19.905 31.0552 20.432C31.0552 21.0837 30.939 21.6787 30.7067 22.217C30.48 22.7554 30.1627 23.2172 29.7547 23.6025C29.3467 23.9822 28.8622 24.2769 28.3012 24.4865C27.7458 24.6962 27.1395 24.801 26.4822 24.801C26.0968 24.801 25.7313 24.7614 25.3857 24.682C25.04 24.6027 24.7142 24.4979 24.4082 24.3675C24.1078 24.2315 23.8273 24.0785 23.5667 23.9085C23.3117 23.7329 23.0822 23.5487 22.8782 23.356L23.5242 22.4635C23.6602 22.2709 23.8387 22.1745 24.0597 22.1745C24.2013 22.1745 24.3458 22.2199 24.4932 22.3105C24.6405 22.4012 24.8077 22.5004 24.9947 22.608C25.1873 22.7157 25.4112 22.8149 25.6662 22.9055C25.9268 22.9962 26.2385 23.0415 26.6012 23.0415C26.9865 23.0415 27.3265 22.9792 27.6212 22.8545C27.9158 22.7299 28.1595 22.557 28.3522 22.336C28.5505 22.1094 28.6978 21.843 28.7942 21.537C28.8962 21.2254 28.9472 20.8882 28.9472 20.5255C28.9472 19.8569 28.7517 19.3355 28.3607 18.9615C27.9753 18.5819 27.403 18.392 26.6437 18.392C26.06 18.392 25.4622 18.4997 24.8502 18.715L23.5412 18.341L24.5612 12.374H30.6302V13.2665C30.6302 13.5669 30.5367 13.8105 30.3497 13.9975C30.1627 14.1845 29.8453 14.278 29.3977 14.278H26.0232L25.5897 16.8365ZM41.435 18.5195C41.435 19.5905 41.3188 20.5227 41.0865 21.316C40.8598 22.1037 40.5425 22.7554 40.1345 23.271C39.7322 23.7867 39.2533 24.172 38.698 24.427C38.1483 24.6764 37.5533 24.801 36.913 24.801C36.2727 24.801 35.6777 24.6764 35.128 24.427C34.584 24.172 34.1108 23.7867 33.7085 23.271C33.3062 22.7554 32.9917 22.1037 32.765 21.316C32.5383 20.5227 32.425 19.5905 32.425 18.5195C32.425 17.4429 32.5383 16.5107 32.765 15.723C32.9917 14.9354 33.3062 14.2837 33.7085 13.768C34.1108 13.2524 34.584 12.8699 35.128 12.6205C35.6777 12.3655 36.2727 12.238 36.913 12.238C37.5533 12.238 38.1483 12.3655 38.698 12.6205C39.2533 12.8699 39.7322 13.2524 40.1345 13.768C40.5425 14.2837 40.8598 14.9354 41.0865 15.723C41.3188 16.5107 41.435 17.4429 41.435 18.5195ZM39.2675 18.5195C39.2675 17.6299 39.2023 16.8932 39.072 16.3095C38.9417 15.7259 38.766 15.2612 38.545 14.9155C38.3297 14.5699 38.0803 14.329 37.797 14.193C37.5137 14.0514 37.219 13.9805 36.913 13.9805C36.6127 13.9805 36.3208 14.0514 36.0375 14.193C35.7598 14.329 35.5133 14.5699 35.298 14.9155C35.0827 15.2612 34.9098 15.7259 34.7795 16.3095C34.6548 16.8932 34.5925 17.6299 34.5925 18.5195C34.5925 19.4092 34.6548 20.1459 34.7795 20.7295C34.9098 21.3132 35.0827 21.7779 35.298 22.1235C35.5133 22.4692 35.7598 22.7129 36.0375 22.8545C36.3208 22.9905 36.6127 23.0585 36.913 23.0585C37.219 23.0585 37.5137 22.9905 37.797 22.8545C38.0803 22.7129 38.3297 22.4692 38.545 22.1235C38.766 21.7779 38.9417 21.3132 39.072 20.7295C39.2023 20.1459 39.2675 19.4092 39.2675 18.5195Z" fill="#17181A"/>
<path fill-rule="evenodd" clip-rule="evenodd" d="M48.4306 16.677C48.7001 16.3625 49.1736 16.326 49.4881 16.5956L52.5 19.1772L55.5119 16.5956C55.8264 16.326 56.2999 16.3625 56.5695 16.677C56.839 16.9915 56.8026 17.4649 56.4881 17.7345L52.9881 20.7345C52.7072 20.9752 52.2928 20.9752 52.0119 20.7345L48.5119 17.7345C48.1974 17.4649 48.161 16.9915 48.4306 16.677Z" fill="#17181A"/>
</svg>
